<?xml version="1.0" standalone="no"?>
<!DOCTYPE svg PUBLIC "-//W3C//DTD SVG 20010904//EN"
 "http://www.w3.org/TR/2001/REC-SVG-20010904/DTD/svg10.dtd">
<svg version="1.0" xmlns="http://www.w3.org/2000/svg"
 width="400.000000pt" height="400.000000pt" viewBox="0 0 400.000000 400.000000"
 preserveAspectRatio="xMidYMid meet">
<metadata>
Created by potrace 1.11, written by Peter Selinger 2001-2013
</metadata>
<g transform="translate(0.000000,400.000000) scale(0.100000,-0.100000)"
fill="#000000" stroke="none">
<path d="M1427 3002 c-14 -15 -17 -40 -17 -128 0 -162 -10 -154 209 -154 l179
0 16 -25 c13 -20 16 -57 16 -223 0 -180 2 -200 18 -215 16 -14 43 -17 164 -17
128 0 147 2 161 18 15 16 17 45 17 193 0 169 10 246 34 261 6 4 85 8 176 8
222 0 213 -7 208 157 -2 96 -6 126 -18 133 -9 6 -243 10 -581 10 -536 0 -567
-1 -582 -18z"/>
<path d="M217 2212 c-14 -15 -17 -41 -17 -140 0 -159 -11 -152 216 -152 147 0
173 -2 185 -17 11 -12 15 -66 17 -222 3 -171 6 -209 19 -223 14 -16 36 -18
168 -18 134 0 154 2 168 18 15 16 17 46 17 206 0 140 4 195 14 221 l15 35 175
0 c225 0 216 -7 216 155 0 102 -2 117 -20 135 -20 20 -33 20 -588 20 -538 0
-570 -1 -585 -18z"/>
<path d="M1853 1844 l-23 -16 0 -573 0 -573 25 -16 c18 -12 50 -16 130 -16
150 0 145 -7 145 213 0 94 5 179 10 187 8 12 48 16 223 20 182 4 216 7 230 22
14 14 17 40 17 165 0 136 -2 150 -20 166 -18 15 -45 17 -213 17 -134 0 -199 4
-217 13 -25 13 -25 13 -30 194 -4 130 -9 186 -18 195 -9 9 -49 14 -125 15 -90
2 -116 0 -134 -13z m262 -1134 c3 -5 1 -10 -4 -10 -6 0 -11 5 -11 10 0 6 2 10
4 10 3 0 8 -4 11 -10z"/>
<path d="M1505 1396 c-16 -8 -43 -27 -58 -44 -94 -99 -11 -252 137 -252 25 0
57 5 73 11 41 15 92 68 102 106 19 68 -24 148 -96 179 -41 18 -119 17 -158 0z"/>
</g>
</svg>
