<svg xmlns="http://www.w3.org/2000/svg" viewBox="0 0 363.45 277.19"><defs><style>.cls-1{fill:#ee765f;}.cls-2{fill:#e8c6c4;}.cls-3{fill:#fdc859;}.cls-4{fill:#37afa4;}.cls-5{fill:#59402e;}.cls-6{fill:#6c4b70;}.cls-7{fill:#f5a48c;}</style></defs><title>logo_mai</title><g id="Layer_2" data-name="Layer 2"><g id="Layer_1-2" data-name="Layer 1"><path class="cls-1" d="M235.78,70.37H205.26c-5.51,0-5.61,8.79-5.61,11.88V113a5.59,5.59,0,0,1-5.6,5.59H168.29a5.6,5.6,0,0,1-5.6-5.59V82.25c0-3.09.3-11.88-5.6-11.88h-30.8a5.49,5.49,0,0,1-5.6-5.46V45.36a5.6,5.6,0,0,1,5.6-5.59H235.78a5.59,5.59,0,0,1,5.6,5.59V64.91a5.48,5.48,0,0,1-5.6,5.46"/><path class="cls-2" d="M181,35.61c8.66,0,15.68-8,15.68-17.8S189.7,0,181,0s-15.68,8-15.68,17.81,7,17.8,15.68,17.8"/><path class="cls-3" d="M290.76,192.53V162c0-5.51-8.8-5.61-11.88-5.61H248.16a5.59,5.59,0,0,1-5.59-5.6V125a5.6,5.6,0,0,1,5.59-5.6h30.72c3.08,0,11.88.3,11.88-5.6V83a5.49,5.49,0,0,1,5.46-5.6h19.55a5.6,5.6,0,0,1,5.59,5.6V192.53a5.59,5.59,0,0,1-5.59,5.6H296.22a5.48,5.48,0,0,1-5.46-5.6"/><path class="cls-2" d="M327.83,137.79c0,8.66,8,15.68,17.81,15.68s17.81-7,17.81-15.68-8-15.68-17.81-15.68-17.81,7-17.81,15.68"/><path class="cls-4" d="M193.2,162.1v30.53c0,5.51,8.79,5.6,11.88,5.6H235.8a5.59,5.59,0,0,1,5.58,5.6v25.76a5.59,5.59,0,0,1-5.58,5.6H205.08c-3.09,0-11.88-.3-11.88,5.6v30.8a5.49,5.49,0,0,1-5.46,5.6H168.19a5.6,5.6,0,0,1-5.59-5.6V162.1a5.6,5.6,0,0,1,5.59-5.6h19.55a5.49,5.49,0,0,1,5.46,5.6"/><path class="cls-5" d="M156.31,216.84c0-8.65-8-15.68-17.81-15.68s-17.81,7-17.81,15.68,8,15.68,17.81,15.68,17.81-7,17.81-15.68"/><path class="cls-6" d="M115.09,150H84.56c-5.51,0-5.6,8.79-5.6,11.88v30.71a5.6,5.6,0,0,1-5.6,5.59H47.6a5.59,5.59,0,0,1-5.6-5.59V161.92c0-3.09.3-11.88-5.6-11.88H5.6A5.49,5.49,0,0,1,0,144.58V125a5.6,5.6,0,0,1,5.6-5.59H115.09a5.6,5.6,0,0,1,5.6,5.59v19.55a5.49,5.49,0,0,1-5.6,5.46"/><path class="cls-7" d="M60.35,113.14c8.65,0,15.68-8,15.68-17.8S69,77.53,60.35,77.53s-15.68,8-15.68,17.81,7,17.8,15.68,17.8"/></g></g></svg>